<?xml version="1.0" standalone="no"?>
<!DOCTYPE svg PUBLIC "-//W3C//DTD SVG 20010904//EN"
 "http://www.w3.org/TR/2001/REC-SVG-20010904/DTD/svg10.dtd">
<svg version="1.0" xmlns="http://www.w3.org/2000/svg"
 width="790.000000pt" height="790.000000pt" viewBox="0 0 790.000000 790.000000"
 preserveAspectRatio="xMidYMid meet">
<metadata>
Created by potrace 1.11, written by Peter Selinger 2001-2013
</metadata>
<g transform="translate(0.000000,790.000000) scale(0.100000,-0.100000)"
fill="#000000" stroke="none">
<path d="M3755 6985 c-147 -30 -258 -76 -385 -160 -52 -34 -156 -92 -230 -128
-107 -53 -156 -84 -237 -152 -242 -203 -403 -451 -480 -740 -15 -58 -18 -107
-18 -280 0 -232 2 -241 77 -462 l42 -121 -26 -34 c-44 -58 -65 -110 -84 -205
-15 -81 -16 -100 -4 -150 41 -175 170 -306 322 -328 46 -7 48 -9 63 -55 24
-72 83 -158 153 -220 120 -110 359 -209 540 -226 78 -7 87 -18 44 -49 -64 -46
-211 -177 -253 -227 -89 -104 -147 -210 -204 -377 -18 -53 -52 -145 -75 -206
-87 -231 -130 -449 -130 -655 0 -226 30 -361 107 -483 40 -63 52 -73 74 -59
10 7 21 12 24 12 3 0 5 -65 5 -144 0 -166 -1 -165 88 -173 l59 -6 12 -101 c21
-174 40 -266 67 -318 17 -34 23 -58 19 -78 -7 -31 12 -56 50 -66 13 -3 78 -4
145 -2 137 3 144 7 155 81 3 23 10 51 15 62 19 43 39 122 79 300 77 343 139
522 169 490 14 -15 78 -223 113 -370 80 -334 135 -535 150 -550 5 -5 71 -11
150 -13 117 -3 144 -1 165 13 24 15 25 20 19 66 -6 43 -4 55 18 87 28 41 50
139 67 294 5 54 10 99 10 101 0 2 25 7 55 10 30 3 59 8 65 12 6 4 10 65 10
157 0 129 2 149 15 144 8 -3 21 -9 29 -12 17 -7 53 40 96 125 43 85 57 143 72
292 21 224 -10 425 -118 759 -31 96 -67 211 -81 255 -14 44 -48 125 -76 180
-47 92 -62 111 -192 240 -78 77 -158 149 -178 160 -20 11 -36 24 -34 30 2 5
35 13 73 18 139 15 341 85 456 159 118 75 187 156 233 271 l26 65 51 7 c98 14
211 92 265 182 33 57 63 157 63 215 0 104 -57 255 -115 307 -19 17 -35 35 -35
40 0 6 16 45 36 88 44 97 59 139 78 228 56 257 46 504 -29 730 -78 235 -155
367 -294 506 -210 211 -564 393 -890 458 -119 24 -354 27 -456 6z m175 -1140
c115 -3 171 -16 285 -65 73 -31 86 -46 79 -89 -45 -274 -115 -424 -258 -559
-59 -56 -124 -89 -193 -99 -45 -6 -62 -18 -47 -33 9 -9 82 -23 224 -43 66 -10
86 -16 88 -30 9 -44 165 -35 307 18 98 37 195 84 226 111 8 8 30 17 48 20 18
4 28 10 22 13 -6 4 13 30 45 61 66 65 133 156 163 223 12 26 25 47 30 47 12 0
21 -217 12 -290 -10 -75 -41 -172 -72 -224 -72 -122 178 86 275 229 l48 70 -6
-147 c-6 -134 -10 -159 -45 -270 -43 -136 -90 -304 -115 -415 -41 -182 -89
-277 -183 -363 -125 -114 -352 -202 -626 -241 -95 -13 -114 -27 -104 -75 5
-29 -3 -36 -76 -63 -83 -30 -172 -28 -269 6 l-77 27 6 42 c6 49 12 46 -129 69
-243 39 -443 113 -569 212 -102 79 -155 175 -199 356 -17 67 -51 197 -76 290
-51 183 -51 175 -11 340 25 108 26 108 67 27 37 -73 101 -161 113 -157 8 2 14
54 19 158 4 87 13 173 21 199 l15 45 25 -56 c56 -126 155 -250 247 -309 26
-16 50 -30 54 -30 3 0 -5 21 -19 47 -34 64 -32 71 11 33 20 -17 56 -41 80 -53
62 -30 71 -17 45 64 -11 35 -21 80 -23 99 l-3 35 100 5 c111 6 103 14 -35 34
l-75 11 -3 125 c-4 141 18 313 58 455 5 17 16 56 25 88 15 54 18 58 40 53 13
-3 26 -2 29 3 4 6 72 7 164 4 86 -3 195 -6 242 -8z m1421 -1038 c43 -102 43
-253 -2 -342 -47 -94 -205 -205 -241 -169 -17 16 119 503 164 587 9 18 11 18
33 -3 13 -12 33 -45 46 -73z m-2779 41 c8 -13 22 -43 33 -68 10 -25 26 -56 36
-70 33 -50 123 -400 106 -416 -11 -11 -77 13 -122 44 -51 35 -110 114 -130
171 -17 52 -20 178 -4 236 13 48 50 125 60 125 4 0 13 -10 21 -22z m1104
-1170 c-29 -137 -30 -982 -2 -2101 l4 -167 -276 2 -277 3 3 175 c4 161 6 180
29 235 51 121 98 211 188 365 43 73 55 110 37 110 -5 0 -16 -16 -25 -36 -10
-19 -23 -34 -29 -32 -7 3 -25 29 -40 59 -28 53 -28 57 -24 184 3 72 10 171 15
220 15 144 22 367 10 325 -5 -19 -13 -57 -17 -84 -7 -46 -8 -48 -18 -25 -7 13
-24 58 -39 99 -31 83 -51 115 -40 62 4 -18 24 -79 44 -135 35 -97 37 -106 30
-182 -4 -44 -8 -109 -9 -145 l-1 -65 -16 35 c-9 19 -23 50 -31 68 -9 21 -18
30 -24 24 -6 -6 2 -50 21 -118 17 -60 35 -139 41 -177 6 -37 22 -93 35 -123
31 -70 31 -78 -1 -134 -61 -106 -79 -138 -107 -190 -16 -30 -48 -75 -72 -100
-23 -25 -48 -55 -54 -68 -7 -12 -16 -20 -21 -17 -19 12 -63 123 -79 199 -22
112 -22 417 1 542 17 99 153 518 194 599 14 28 32 70 41 95 38 110 200 316
295 376 21 13 39 24 41 24 2 0 -4 -24 -14 -52 -53 -159 -76 -537 -43 -723 36
-211 129 -490 146 -443 5 12 -15 96 -70 298 -44 161 -55 271 -49 474 6 200 18
279 61 401 53 150 63 164 119 165 23 0 27 -3 23 -22z m573 -7 c21 -22 39 -67
69 -173 83 -286 78 -588 -14 -908 -28 -100 -55 -223 -49 -229 21 -20 95 201
135 399 46 233 34 515 -34 765 -8 28 -12 52 -10 54 1 1 13 -7 26 -19 13 -12
35 -28 49 -35 57 -30 220 -248 254 -341 11 -27 25 -58 31 -69 24 -37 158 -427
190 -550 71 -271 50 -640 -45 -795 l-18 -31 -28 38 c-15 21 -42 52 -60 68 -18
17 -57 75 -85 130 -29 55 -60 111 -70 125 -9 14 -22 40 -30 58 -11 29 -10 37
9 75 27 54 51 133 51 172 0 17 14 75 30 129 34 112 39 156 16 136 -8 -6 -23
-35 -32 -63 l-18 -52 -9 40 c-5 22 -9 92 -10 155 -1 112 0 118 40 230 42 114
55 168 30 120 -8 -14 -26 -59 -42 -100 -15 -41 -34 -82 -41 -90 -12 -12 -14
-9 -14 25 0 22 -7 60 -15 85 -15 44 -15 43 -10 -65 5 -113 17 -243 36 -420 13
-121 2 -199 -37 -269 l-27 -49 -25 42 c-24 41 -42 53 -42 28 0 -7 16 -40 36
-73 20 -32 61 -106 91 -164 31 -58 60 -109 64 -114 5 -6 9 -16 9 -23 0 -7 13
-41 29 -75 29 -61 30 -68 33 -243 l3 -180 -274 -3 -274 -2 7 477 c4 263 9 505
11 538 16 301 8 1137 -13 1233 l-9 42 29 0 c20 0 39 -10 57 -29z m-407 -92
c66 -17 141 -12 220 15 40 14 74 23 77 20 4 -3 8 -84 9 -180 l4 -174 -233 0
-232 0 6 176 c4 96 9 179 12 184 3 5 26 0 50 -10 25 -11 64 -24 87 -31z m316
-609 c2 -80 -1 -289 -8 -465 -6 -176 -12 -376 -13 -445 l-2 -125 -211 -3 -211
-2 -6 132 c-4 73 -10 341 -14 595 l-6 461 234 -1 234 -2 3 -145z m-1082 -1248
c-12 -11 -18 7 -10 30 l8 23 4 -23 c2 -13 1 -26 -2 -30z m1714 1 c0 -13 -3
-13 -15 -3 -8 7 -15 19 -15 27 0 13 3 13 15 3 8 -7 15 -19 15 -27z m-978 -105
c-7 -30 -20 -38 -58 -38 -46 0 -53 27 -11 45 17 8 42 14 54 15 17 0 20 -4 15
-22z m562 -671 c124 -2 147 -21 28 -24 -42 0 -98 -8 -125 -16 -44 -14 -48 -14
-57 3 -19 36 -13 52 19 45 15 -3 76 -7 135 -8z m-964 -17 c-20 -13 -40 -13
-40 0 0 6 12 10 28 10 21 0 24 -2 12 -10z m220 -13 l0 -23 -72 18 c-102 26
-103 26 -10 27 79 1 82 0 82 -22z"/>
<path d="M3066 4585 c-11 -29 42 -35 283 -35 183 0 241 3 256 13 43 32 9 37
-265 37 -231 0 -269 -2 -274 -15z"/>
<path d="M4274 4588 c-4 -6 1 -17 11 -25 27 -19 503 -19 530 0 43 32 9 37
-265 37 -192 0 -271 -3 -276 -12z"/>
<path d="M3660 4177 c0 -39 101 -56 199 -32 66 16 74 16 144 0 86 -21 155 -15
182 16 24 26 13 35 -19 14 -21 -14 -39 -16 -98 -10 -98 9 -188 9 -275 0 -59
-6 -77 -5 -97 9 -30 19 -36 20 -36 3z"/>
<path d="M3102 2845 c0 -16 2 -22 5 -12 2 9 2 23 0 30 -3 6 -5 -1 -5 -18z"/>
<path d="M3572 2155 c-26 -58 -5 -124 36 -111 26 9 40 82 23 115 -16 29 -45
26 -59 -4z"/>
<path d="M3599 1808 c-24 -19 -31 -63 -19 -108 12 -45 41 -55 60 -21 29 54 -5
158 -41 129z"/>
<path d="M4732 2845 c0 -16 2 -22 5 -12 2 9 2 23 0 30 -3 6 -5 -1 -5 -18z"/>
<path d="M4215 2165 c-3 -8 -7 -21 -9 -29 -7 -22 14 -86 30 -93 25 -9 44 17
44 63 0 44 -19 74 -46 74 -8 0 -17 -7 -19 -15z"/>
<path d="M4210 1805 c-6 -8 -10 -40 -8 -77 3 -53 6 -63 22 -66 54 -11 65 131
12 151 -8 3 -20 0 -26 -8z"/>
</g>
</svg>
